Coordinates
version=1
nRows=18
nColumns=32
inDegrees=yes

Units are S.I. units (second, meters, Newtons, ...)
If the header above contains a line with 'inDegrees', this indicates whether rotational values are in degrees (yes) or radians (no).

endheader
time	pelvis_tilt	pelvis_list	pelvis_rotation	pelvis_tx	pelvis_ty	pelvis_tz	hip_flexion_r	hip_adduction_r	hip_rotation_r	knee_angle_r	knee_adduction_r	med_cond_adduction_r	lat_cond_adduction_r	patella_r_constrained_knee_angle	ankle_angle_r	subtalar_angle_r	mtp_angle_r	hip_flexion_l	hip_adduction_l	hip_rotation_l	knee_angle_l	knee_adduction_l	med_cond_adduction_l	lat_cond_adduction_l	patella_l_constrained_knee_angle	ankle_angle_l	subtalar_angle_l	mtp_angle_l	lumbar_extension	lumbar_bending	lumbar_rotation
      1.61500000	    -20.64927834	     -3.65424938	     -2.99556495	      0.12035409	      0.47390820	     -1.20364124	    108.34538712	    -49.88790182	      8.60700091	   -114.07369511	      0.00000000	      0.00000000	     -0.00000000	     -1.99096157	     17.73616553	     19.69916416	      0.00000000	    119.29163095	    -49.88493578	     21.02624084	   -114.81486209	     -0.00000000	      0.00000000	     -0.00000000	     -2.00389737	     20.94804593	     19.81343995	      0.00000000	    -22.57076902	      4.33070916	     -2.98077179
      1.62000000	    -20.52821225	     -3.59383026	     -2.97427487	      0.12039858	      0.47272711	     -1.20352083	    108.57945965	    -49.88893395	      8.94153892	   -114.26228043	     -0.00000000	      0.00000000	     -0.00000000	     -1.99425300	     17.78773950	     19.69968267	      0.00000000	    119.32680246	    -49.88630281	     21.13015231	   -114.97849511	     -0.00000000	     -0.00000000	      0.00000000	     -2.00675331	     21.01614240	     19.81384049	      0.00000000	    -22.79729188	      4.35780076	     -2.67799216
      1.62500000	    -20.56774372	     -3.33876330	     -2.89399555	      0.12036994	      0.47099800	     -1.20334217	    109.40438146	    -49.88871951	      9.71078804	   -114.51271720	     -0.00000000	     -0.00000000	      0.00000000	     -1.99862395	     17.77694633	     19.69923721	     -0.00000000	    119.30474737	    -49.88699016	     20.91594695	   -115.16542976	      0.00000000	     -0.00000000	      0.00000000	     -2.01001593	     21.09607543	     19.81363834	      0.00000000	    -22.77935379	      4.08325023	     -2.73108355
      1.63000000	    -20.42388830	     -3.31286308	     -2.88167621	      0.12043399	      0.46994748	     -1.20320197	    109.53475338	    -49.88970430	      9.95855023	   -114.68929451	     -0.00000000	      0.00000000	     -0.00000000	     -2.00170581	     17.83720273	     19.69898994	     -0.00000000	    119.34506078	    -49.88850178	     21.07199433	   -115.31479857	     -0.00000000	     -0.00000000	      0.00000000	     -2.01262291	     21.15868440	     19.81417188	      0.00000000	    -23.05971326	      4.01430563	     -2.79917709
      1.63500000	    -20.25292263	     -3.31465696	     -2.87476361	      0.12050873	      0.46897413	     -1.20305960	    109.58159586	    -49.89187014	     10.15101575	   -114.86772882	     -0.00000000	      0.00000000	     -0.00000000	     -2.00482007	     17.94437008	     19.69997138	      0.00000000	    119.38611270	    -49.88800147	     21.27120531	   -115.46453867	      0.00000000	     -0.00000000	      0.00000000	     -2.01523637	     21.25220393	     19.81462644	      0.00000000	    -23.36516006	      3.89925247	     -3.06568441
      1.64000000	    -20.16944686	     -3.21699157	     -2.84246273	      0.12055009	      0.46773068	     -1.20291230	    109.92401153	    -49.89235269	     10.55623827	   -115.06407131	      0.00000000	     -0.00000000	      0.00000000	     -2.00824690	     18.00618147	     19.69977473	     -0.00000000	    119.40105383	    -49.88965213	     21.29998554	   -115.62003433	     -0.00000000	     -0.00000000	      0.00000000	     -2.01795028	     21.33589859	     19.81487044	     -0.00000000	    -23.54591258	      3.77298330	     -3.16068195
      1.64500000	    -20.06041102	     -3.14105446	     -2.81896010	      0.12060241	      0.46655453	     -1.20275143	    110.19610946	    -49.89281902	     10.90692484	   -115.25590984	      0.00000000	      0.00000000	     -0.00000000	     -2.01159511	     18.06706542	     19.70015092	     -0.00000000	    119.41977546	    -49.89071643	     21.37638814	   -115.77931970	     -0.00000000	     -0.00000000	      0.00000000	     -2.02073033	     21.41860720	     19.81506663	     -0.00000000	    -23.75748313	      3.71300552	     -3.05521679
      1.65000000	    -19.95019982	     -3.07325090	     -2.79762380	      0.12065594	      0.46541428	     -1.20259415	    110.46056905	    -49.89464631	     11.25082960	   -115.44954748	      0.00000000	     -0.00000000	      0.00000000	     -2.01497472	     18.07305902	     19.70047380	      0.00000000	    119.43909770	    -49.89040208	     21.45895864	   -115.92910633	     -0.00000000	     -0.00000000	      0.00000000	     -2.02334460	     21.49969270	     19.81541645	      0.00000000	    -23.96969712	      3.63189058	     -3.04575617
      1.65500000	    -19.85028341	     -2.98360602	     -2.77070376	      0.12072435	      0.46422552	     -1.20243617	    110.76344843	    -49.89450828	     11.62329612	   -115.63900539	     -0.00000000	     -0.00000000	      0.00000000	     -2.01828139	     18.14493914	     19.70066845	     -0.00000000	    119.44853956	    -49.89125962	     21.51099405	   -116.09023360	      0.00000000	      0.00000000	     -0.00000000	     -2.02615681	     21.55456696	     19.81556091	      0.00000000	    -24.16856776	      3.50372900	     -3.12120361
      1.66000000	    -19.74273035	     -2.90986413	     -2.75083885	      0.12079861	      0.46307342	     -1.20227619	    111.04184571	    -49.89543776	     11.97273905	   -115.83139050	     -0.00000000	     -0.00000000	      0.00000000	     -2.02163914	     18.19147505	     19.70083891	     -0.00000000	    119.46390601	    -49.89141910	     21.58763062	   -116.24935611	      0.00000000	      0.00000000	     -0.00000000	     -2.02893402	     21.65447111	     19.81572042	      0.00000000	    -24.37493506	      3.40885827	     -3.13281031
      1.66500000	    -19.63077348	     -2.83423952	     -2.73625494	      0.12087520	      0.46194470	     -1.20211914	    111.30013216	    -49.89527480	     12.30538900	   -116.01527754	      0.00000000	      0.00000000	     -0.00000000	     -2.02484858	     18.22048996	     19.70131409	     -0.00000000	    119.47149588	    -49.89227663	     21.66854006	   -116.40483197	     -0.00000000	      0.00000000	     -0.00000000	     -2.03164758	     21.72037320	     19.81582444	     -0.00000000	    -24.58691870	      3.27393249	     -3.26558872
      1.67000000	    -19.51836047	     -2.76569741	     -2.72322757	      0.12096915	      0.46082421	     -1.20195718	    111.55202708	    -49.89559257	     12.62961193	   -116.19886298	      0.00000000	      0.00000000	     -0.00000000	     -2.02805275	     18.25021209	     19.70123545	     -0.00000000	    119.48418134	    -49.89268631	     21.75798717	   -116.56293510	     -0.00000000	      0.00000000	     -0.00000000	     -2.03440700	     21.81512905	     19.81586006	     -0.00000000	    -24.79849255	      3.21795443	     -3.17429104
      1.67500000	    -19.40173668	     -2.70302312	     -2.71452409	      0.12107684	      0.45973602	     -1.20179811	    111.77654247	    -49.89601458	     12.93086681	   -116.38454677	      0.00000000	     -0.00000000	      0.00000000	     -2.03129354	     18.30804983	     19.70215022	     -0.00000000	    119.49556214	    -49.89288841	     21.85796440	   -116.71448492	      0.00000000	      0.00000000	     -0.00000000	     -2.03705205	     21.87998434	     19.81617397	     -0.00000000	    -25.00945230	      3.12056147	     -3.20735643
      1.68000000	    -19.27528455	     -2.64993571	     -2.71373256	      0.12117448	      0.45865899	     -1.20164801	    111.99040397	    -49.89641923	     13.21638919	   -116.56251390	     -0.00000000	      0.00000000	     -0.00000000	     -2.03439965	     18.28720253	     19.70186129	      0.00000000	    119.50821507	    -49.89308973	     21.97992626	   -116.87434676	      0.00000000	      0.00000000	     -0.00000000	     -2.03984216	     22.01220466	     19.81636108	     -0.00000000	    -25.24510959	      3.06374990	     -3.16955093
      1.68500000	    -19.12254063	     -2.62115154	     -2.71367291	      0.12131079	      0.45764195	     -1.20147847	    112.12075727	    -49.89764360	     13.46272454	   -116.74977479	     -0.00000000	     -0.00000000	      0.00000000	     -2.03766797	     18.37819796	     19.70274266	     -0.00000000	    119.52215436	    -49.89249864	     22.13282260	   -117.02603076	     -0.00000000	      0.00000000	     -0.00000000	     -2.04248955	     22.09655678	     19.81636573	     -0.00000000	    -25.49181136	      3.04083822	     -3.05523992
      1.69000000	    -19.02896617	     -2.53419010	     -2.70226903	      0.12143708	      0.45651367	     -1.20132679	    112.41622149	    -49.89694968	     13.80478467	   -116.92776278	     -0.00000000	     -0.00000000	      0.00000000	     -2.04077445	     18.39557437	     19.70300887	      0.00000000	    119.52172471	    -49.89286840	     22.19075858	   -117.18758369	     -0.00000000	     -0.00000000	      0.00000000	     -2.04530918	     22.18870866	     19.81637076	      0.00000000	    -25.67644482	      2.90298777	     -3.18367365
      1.69500000	    -18.91479455	     -2.46929405	     -2.70020157	      0.12157215	      0.45541810	     -1.20116824	    112.65571832	    -49.89635721	     14.10906164	   -117.11006787	      0.00000000	      0.00000000	     -0.00000000	     -2.04395627	     18.43077450	     19.70346013	      0.00000000	    119.52696680	    -49.89270149	     22.29109038	   -117.34382958	     -0.00000000	      0.00000000	     -0.00000000	     -2.04803618	     22.29787962	     19.81650344	      0.00000000	    -25.87996144	      2.83404126	     -3.13204235
      1.70000000	    -18.78444027	     -2.42478382	     -2.70695834	      0.12172874	      0.45439402	     -1.20100550	    112.82847335	    -49.89613589	     14.36327878	   -117.28505761	      0.00000000	      0.00000000	     -0.00000000	     -2.04701042	     18.47133141	     19.70371644	      0.00000000	    119.53641810	    -49.89290546	     22.42504761	   -117.49858680	     -0.00000000	     -0.00000000	      0.00000000	     -2.05073721	     22.38175064	     19.81643894	     -0.00000000	    -26.10956558	      2.77757932	     -3.09852233
